<svg width="280" height="28" viewBox="0 0 280 28" fill="none" xmlns="http://www.w3.org/2000/svg">
<path d="M21.432 22.608H11.82L9.3 27H0.335999L16.392 1.80003H24.744L30.72 27H22.26L21.432 22.608ZM20.244 16.488L19.02 10.044L15.312 16.488H20.244ZM58.7561 0.288025L53.4281 27H45.7601L46.1201 25.2C44.6321 26.64 42.8681 27.36 40.8281 27.36C39.4841 27.36 38.1881 27 36.9401 26.28C35.6921 25.56 34.6721 24.516 33.8801 23.148C33.1121 21.756 32.7281 20.124 32.7281 18.252C32.7281 16.14 33.1961 14.22 34.1321 12.492C35.0921 10.764 36.3761 9.40803 37.9841 8.42403C39.5921 7.44003 41.3321 6.94803 43.2041 6.94803C45.8201 6.94803 47.6921 7.75203 48.8201 9.36003L50.6201 0.288025H58.7561ZM40.9721 17.856C40.9721 18.792 41.2241 19.548 41.7281 20.124C42.2561 20.676 42.9761 20.952 43.8881 20.952C44.9441 20.952 45.7961 20.544 46.4441 19.728C47.1161 18.912 47.4521 17.82 47.4521 16.452C47.4521 15.516 47.1881 14.772 46.6601 14.22C46.1561 13.644 45.4481 13.356 44.5361 13.356C43.4801 13.356 42.6161 13.764 41.9441 14.58C41.2961 15.396 40.9721 16.488 40.9721 17.856ZM82.5909 7.30803L78.6669 27H70.9989L71.3589 25.2C69.8709 26.64 68.0949 27.36 66.0309 27.36C64.6869 27.36 63.3909 27 62.1429 26.28C60.8949 25.56 59.8749 24.516 59.0829 23.148C58.3149 21.756 57.9309 20.124 57.9309 18.252C57.9309 16.14 58.3989 14.22 59.3349 12.492C60.2949 10.764 61.5789 9.40803 63.1869 8.42403C64.7949 7.44003 66.5349 6.94803 68.4069 6.94803C71.0469 6.94803 72.9189 7.76403 74.0229 9.39603L74.4549 7.30803H82.5909ZM66.1749 17.856C66.1749 18.792 66.4269 19.548 66.9309 20.124C67.4589 20.676 68.1789 20.952 69.0909 20.952C70.1469 20.952 70.9989 20.544 71.6469 19.728C72.3189 18.912 72.6549 17.82 72.6549 16.452C72.6549 15.516 72.3909 14.772 71.8629 14.22C71.3589 13.644 70.6509 13.356 69.7389 13.356C68.6829 13.356 67.8189 13.764 67.1469 14.58C66.4989 15.396 66.1749 16.488 66.1749 17.856ZM111.758 6.94803C113.774 6.94803 115.406 7.53603 116.654 8.71203C117.926 9.86403 118.562 11.52 118.562 13.68C118.562 14.496 118.478 15.312 118.31 16.128L116.15 27H108.014L109.994 17.172C110.09 16.764 110.138 16.356 110.138 15.948C110.138 15.228 109.982 14.688 109.67 14.328C109.358 13.968 108.926 13.788 108.374 13.788C106.718 13.788 105.662 14.94 105.206 17.244L103.262 27H95.126L97.106 17.172C97.202 16.764 97.25 16.356 97.25 15.948C97.25 15.228 97.094 14.688 96.782 14.328C96.47 13.968 96.038 13.788 95.486 13.788C93.854 13.788 92.786 14.988 92.282 17.388L90.374 27H82.238L86.162 7.30803H93.83L93.434 9.21603C94.25 8.44803 95.138 7.88403 96.098 7.52403C97.058 7.14003 98.042 6.94803 99.05 6.94803C100.274 6.94803 101.402 7.21203 102.434 7.74003C103.466 8.26803 104.27 9.04803 104.846 10.08C105.71 9.07203 106.73 8.30403 107.906 7.77603C109.082 7.22403 110.366 6.94803 111.758 6.94803ZM149.084 22.608H139.472L136.952 27H127.988L144.044 1.80003H152.396L158.372 27H149.912L149.084 22.608ZM147.896 16.488L146.672 10.044L142.964 16.488H147.896ZM164.804 0.288025H172.94L167.612 27H159.476L164.804 0.288025ZM187.778 6.94803C189.122 6.94803 190.418 7.30803 191.666 8.02803C192.914 8.74803 193.922 9.80403 194.69 11.196C195.482 12.564 195.878 14.184 195.878 16.056C195.878 18.168 195.398 20.088 194.438 21.816C193.502 23.544 192.23 24.9 190.622 25.884C189.014 26.868 187.274 27.36 185.402 27.36C182.498 27.36 180.518 26.376 179.462 24.408L178.958 27H171.218L176.546 0.288025H184.682L183.026 8.64003C184.37 7.51203 185.954 6.94803 187.778 6.94803ZM184.07 20.952C185.126 20.952 185.978 20.544 186.626 19.728C187.298 18.912 187.634 17.82 187.634 16.452C187.634 15.516 187.37 14.772 186.842 14.22C186.338 13.644 185.63 13.356 184.718 13.356C183.662 13.356 182.798 13.764 182.126 14.58C181.478 15.396 181.154 16.488 181.154 17.856C181.154 18.792 181.406 19.548 181.91 20.124C182.438 20.676 183.158 20.952 184.07 20.952ZM204.633 27.36C202.929 27.36 201.285 27.192 199.701 26.856C198.117 26.52 196.881 26.088 195.993 25.56L198.801 20.016C199.737 20.592 200.817 21.036 202.041 21.348C203.289 21.66 204.489 21.816 205.641 21.816C207.249 21.816 208.053 21.504 208.053 20.88C208.053 20.616 207.837 20.424 207.405 20.304C206.997 20.16 206.337 20.028 205.425 19.908C204.009 19.692 202.809 19.44 201.825 19.152C200.841 18.84 199.977 18.312 199.233 17.568C198.489 16.8 198.117 15.744 198.117 14.4C198.117 11.976 199.149 10.128 201.213 8.85603C203.277 7.58403 205.941 6.94803 209.205 6.94803C210.645 6.94803 212.025 7.08003 213.345 7.34403C214.689 7.58403 215.877 7.94403 216.909 8.42403L214.101 13.968C212.397 12.984 210.441 12.492 208.233 12.492C207.369 12.492 206.733 12.588 206.325 12.78C205.941 12.972 205.749 13.2 205.749 13.464C205.749 13.728 205.953 13.932 206.361 14.076C206.769 14.196 207.465 14.34 208.449 14.508C209.841 14.724 211.017 14.988 211.977 15.3C212.961 15.588 213.813 16.116 214.533 16.884C215.277 17.628 215.649 18.66 215.649 19.98C215.649 21.564 215.157 22.92 214.173 24.048C213.213 25.152 211.893 25.98 210.213 26.532C208.557 27.084 206.697 27.36 204.633 27.36ZM228.337 27.36C226.177 27.36 224.293 26.988 222.685 26.244C221.077 25.476 219.829 24.408 218.941 23.04C218.077 21.672 217.645 20.076 217.645 18.252C217.645 16.116 218.173 14.196 219.229 12.492C220.285 10.764 221.737 9.40803 223.585 8.42403C225.457 7.44003 227.569 6.94803 229.921 6.94803C232.081 6.94803 233.965 7.33203 235.573 8.10003C237.181 8.84403 238.417 9.90003 239.281 11.268C240.169 12.636 240.613 14.232 240.613 16.056C240.613 18.192 240.085 20.124 239.029 21.852C237.973 23.556 236.509 24.9 234.637 25.884C232.789 26.868 230.689 27.36 228.337 27.36ZM228.805 20.952C229.861 20.952 230.713 20.544 231.361 19.728C232.033 18.912 232.369 17.82 232.369 16.452C232.369 15.516 232.105 14.772 231.577 14.22C231.073 13.644 230.365 13.356 229.453 13.356C228.397 13.356 227.533 13.764 226.861 14.58C226.213 15.396 225.889 16.488 225.889 17.856C225.889 18.792 226.141 19.548 226.645 20.124C227.173 20.676 227.893 20.952 228.805 20.952ZM266.597 7.30803L262.673 27H255.005L255.401 25.02C254.561 25.812 253.637 26.4 252.629 26.784C251.621 27.168 250.601 27.36 249.569 27.36C247.457 27.36 245.765 26.784 244.493 25.632C243.221 24.48 242.585 22.824 242.585 20.664C242.585 19.848 242.669 19.02 242.837 18.18L244.997 7.30803H253.133L251.153 17.208C251.057 17.784 251.009 18.192 251.009 18.432C251.009 19.824 251.669 20.52 252.989 20.52C254.861 20.52 256.049 19.272 256.553 16.776L258.461 7.30803H266.597ZM271.574 0.288025H279.71L274.382 27H266.246L271.574 0.288025Z" fill="#FAFAFA"/>
</svg>
