<svg width="254" height="28" viewBox="0 0 254 28" fill="none" xmlns="http://www.w3.org/2000/svg">
<path d="M20.836 20.7H7.444L4.672 27H0.964L12.376 1.8H15.94L27.388 27H23.608L20.836 20.7ZM19.576 17.82L14.14 5.472L8.704 17.82H19.576ZM48.4674 0.287998V27H45.1554V23.976C44.3874 25.032 43.4154 25.836 42.2394 26.388C41.0634 26.94 39.7674 27.216 38.3514 27.216C36.5034 27.216 34.8474 26.808 33.3834 25.992C31.9194 25.176 30.7674 24.036 29.9274 22.572C29.1114 21.084 28.7034 19.38 28.7034 17.46C28.7034 15.54 29.1114 13.848 29.9274 12.384C30.7674 10.92 31.9194 9.78 33.3834 8.964C34.8474 8.148 36.5034 7.74 38.3514 7.74C39.7194 7.74 40.9794 8.004 42.1314 8.532C43.2834 9.036 44.2434 9.792 45.0114 10.8V0.287998H48.4674ZM38.6394 24.192C39.8394 24.192 40.9314 23.916 41.9154 23.364C42.8994 22.788 43.6674 21.996 44.2194 20.988C44.7714 19.956 45.0474 18.78 45.0474 17.46C45.0474 16.14 44.7714 14.976 44.2194 13.968C43.6674 12.936 42.8994 12.144 41.9154 11.592C40.9314 11.04 39.8394 10.764 38.6394 10.764C37.4154 10.764 36.3114 11.04 35.3274 11.592C34.3674 12.144 33.5994 12.936 33.0234 13.968C32.4714 14.976 32.1954 16.14 32.1954 17.46C32.1954 18.78 32.4714 19.956 33.0234 20.988C33.5994 21.996 34.3674 22.788 35.3274 23.364C36.3114 23.916 37.4154 24.192 38.6394 24.192ZM61.9545 7.74C64.5945 7.74 66.6105 8.388 68.0025 9.684C69.4185 10.98 70.1265 12.912 70.1265 15.48V27H66.8505V24.48C66.2745 25.368 65.4465 26.052 64.3665 26.532C63.3105 26.988 62.0505 27.216 60.5865 27.216C58.4505 27.216 56.7345 26.7 55.4385 25.668C54.1665 24.636 53.5305 23.28 53.5305 21.6C53.5305 19.92 54.1425 18.576 55.3665 17.568C56.5905 16.536 58.5345 16.02 61.1985 16.02H66.6705V15.336C66.6705 13.848 66.2385 12.708 65.3745 11.916C64.5105 11.124 63.2385 10.728 61.5585 10.728C60.4305 10.728 59.3265 10.92 58.2465 11.304C57.1665 11.664 56.2545 12.156 55.5105 12.78L54.0705 10.188C55.0545 9.396 56.2305 8.796 57.5985 8.388C58.9665 7.956 60.4185 7.74 61.9545 7.74ZM61.1625 24.552C62.4825 24.552 63.6225 24.264 64.5825 23.688C65.5425 23.088 66.2385 22.248 66.6705 21.168V18.504H61.3425C58.4145 18.504 56.9505 19.488 56.9505 21.456C56.9505 22.416 57.3225 23.172 58.0665 23.724C58.8105 24.276 59.8425 24.552 61.1625 24.552ZM100.39 7.74C102.79 7.74 104.686 8.436 106.078 9.828C107.494 11.22 108.202 13.284 108.202 16.02V27H104.746V16.416C104.746 14.568 104.314 13.176 103.45 12.24C102.61 11.304 101.398 10.836 99.8141 10.836C98.0621 10.836 96.6701 11.388 95.6381 12.492C94.6061 13.572 94.0901 15.132 94.0901 17.172V27H90.6341V16.416C90.6341 14.568 90.2021 13.176 89.3381 12.24C88.4981 11.304 87.2861 10.836 85.7021 10.836C83.9501 10.836 82.5581 11.388 81.5261 12.492C80.4941 13.572 79.9781 15.132 79.9781 17.172V27H76.5221V7.92H79.8341V10.764C80.5301 9.78 81.4421 9.036 82.5701 8.532C83.6981 8.004 84.9821 7.74 86.4221 7.74C87.9101 7.74 89.2301 8.04 90.3821 8.64C91.5341 9.24 92.4221 10.116 93.0461 11.268C93.7661 10.164 94.7621 9.3 96.0341 8.676C97.3301 8.052 98.7821 7.74 100.39 7.74ZM140.789 20.7H127.397L124.625 27H120.917L132.329 1.8H135.893L147.341 27H143.561L140.789 20.7ZM139.529 17.82L134.093 5.472L128.657 17.82H139.529ZM150.596 0.287998H154.052V27H150.596V0.287998ZM170.767 7.74C172.615 7.74 174.271 8.148 175.735 8.964C177.199 9.78 178.339 10.92 179.155 12.384C179.995 13.848 180.415 15.54 180.415 17.46C180.415 19.38 179.995 21.084 179.155 22.572C178.339 24.036 177.199 25.176 175.735 25.992C174.271 26.808 172.615 27.216 170.767 27.216C169.351 27.216 168.055 26.94 166.879 26.388C165.703 25.836 164.731 25.032 163.963 23.976V27H160.651V0.287998H164.107V10.8C164.875 9.792 165.835 9.036 166.987 8.532C168.139 8.004 169.399 7.74 170.767 7.74ZM170.479 24.192C171.703 24.192 172.795 23.916 173.755 23.364C174.739 22.788 175.507 21.996 176.059 20.988C176.635 19.956 176.923 18.78 176.923 17.46C176.923 16.14 176.635 14.976 176.059 13.968C175.507 12.936 174.739 12.144 173.755 11.592C172.795 11.04 171.703 10.764 170.479 10.764C169.279 10.764 168.187 11.04 167.203 11.592C166.219 12.144 165.451 12.936 164.899 13.968C164.347 14.976 164.071 16.14 164.071 17.46C164.071 18.78 164.347 19.956 164.899 20.988C165.451 21.996 166.219 22.788 167.203 23.364C168.187 23.916 169.279 24.192 170.479 24.192ZM190.662 27.216C189.102 27.216 187.602 27.012 186.162 26.604C184.722 26.172 183.594 25.632 182.778 24.984L184.218 22.248C185.058 22.848 186.078 23.328 187.278 23.688C188.478 24.048 189.69 24.228 190.914 24.228C193.938 24.228 195.45 23.364 195.45 21.636C195.45 21.06 195.246 20.604 194.838 20.268C194.43 19.932 193.914 19.692 193.29 19.548C192.69 19.38 191.826 19.2 190.698 19.008C189.162 18.768 187.902 18.492 186.918 18.18C185.958 17.868 185.13 17.34 184.434 16.596C183.738 15.852 183.39 14.808 183.39 13.464C183.39 11.736 184.11 10.356 185.55 9.324C186.99 8.268 188.922 7.74 191.346 7.74C192.618 7.74 193.89 7.896 195.162 8.208C196.434 8.52 197.478 8.94 198.294 9.468L196.818 12.204C195.258 11.196 193.422 10.692 191.31 10.692C189.846 10.692 188.73 10.932 187.962 11.412C187.194 11.892 186.81 12.528 186.81 13.32C186.81 13.944 187.026 14.436 187.458 14.796C187.89 15.156 188.418 15.42 189.042 15.588C189.69 15.756 190.59 15.948 191.742 16.164C193.278 16.428 194.514 16.716 195.45 17.028C196.41 17.316 197.226 17.82 197.898 18.54C198.57 19.26 198.906 20.268 198.906 21.564C198.906 23.292 198.162 24.672 196.674 25.704C195.21 26.712 193.206 27.216 190.662 27.216ZM211.397 27.216C209.501 27.216 207.797 26.796 206.285 25.956C204.773 25.116 203.585 23.964 202.721 22.5C201.881 21.012 201.461 19.332 201.461 17.46C201.461 15.588 201.881 13.92 202.721 12.456C203.585 10.968 204.773 9.816 206.285 9C207.797 8.16 209.501 7.74 211.397 7.74C213.293 7.74 214.985 8.16 216.473 9C217.985 9.816 219.161 10.968 220.001 12.456C220.865 13.92 221.297 15.588 221.297 17.46C221.297 19.332 220.865 21.012 220.001 22.5C219.161 23.964 217.985 25.116 216.473 25.956C214.985 26.796 213.293 27.216 211.397 27.216ZM211.397 24.192C212.621 24.192 213.713 23.916 214.673 23.364C215.657 22.788 216.425 21.996 216.977 20.988C217.529 19.956 217.805 18.78 217.805 17.46C217.805 16.14 217.529 14.976 216.977 13.968C216.425 12.936 215.657 12.144 214.673 11.592C213.713 11.04 212.621 10.764 211.397 10.764C210.173 10.764 209.069 11.04 208.085 11.592C207.125 12.144 206.357 12.936 205.781 13.968C205.229 14.976 204.953 16.14 204.953 17.46C204.953 18.78 205.229 19.956 205.781 20.988C206.357 21.996 207.125 22.788 208.085 23.364C209.069 23.916 210.173 24.192 211.397 24.192ZM243.861 7.92V27H240.585V24.12C239.889 25.104 238.965 25.872 237.813 26.424C236.685 26.952 235.449 27.216 234.105 27.216C231.561 27.216 229.557 26.52 228.093 25.128C226.629 23.712 225.897 21.636 225.897 18.9V7.92H229.353V18.504C229.353 20.352 229.797 21.756 230.685 22.716C231.573 23.652 232.845 24.12 234.501 24.12C236.325 24.12 237.765 23.568 238.821 22.464C239.877 21.36 240.405 19.8 240.405 17.784V7.92H243.861ZM250.44 0.287998H253.896V27H250.44V0.287998Z" fill="#FAFAFA"/>
</svg>
